<?xml version="1.0" encoding="UTF-8" standalone="no"?>
<!-- Created with Inkscape (http://www.inkscape.org/) -->

<svg
   xmlns:dc="http://purl.org/dc/elements/1.1/"
   xmlns:cc="http://creativecommons.org/ns#"
   xmlns:rdf="http://www.w3.org/1999/02/22-rdf-syntax-ns#"
   xmlns:svg="http://www.w3.org/2000/svg"
   xmlns="http://www.w3.org/2000/svg"
   xmlns:sodipodi="http://sodipodi.sourceforge.net/DTD/sodipodi-0.dtd"
   xmlns:inkscape="http://www.inkscape.org/namespaces/inkscape"
   width="510"
   height="246.09"
   id="svg3629"
   version="1.1"
   inkscape:version="0.48.1 "
   sodipodi:docname="Neues Dokument 4">
  <defs
     id="defs3631">
    <clipPath
       clipPathUnits="userSpaceOnUse"
       id="clipPath82">
      <path
         inkscape:connector-curvature="0"
         d="m 484.017,25.795 85.606,0 0,41.387 -85.606,0 0,-41.387 z"
         id="path84" />
    </clipPath>
    <clipPath
       clipPathUnits="userSpaceOnUse"
       id="clipPath66">
      <path
         inkscape:connector-curvature="0"
         d="m 484.161,25.796 85.319,0 0,40.285 -85.319,0 0,-40.285 z"
         id="path68" />
    </clipPath>
  </defs>
  <sodipodi:namedview
     id="base"
     pagecolor="#ffffff"
     bordercolor="#666666"
     borderopacity="1.0"
     inkscape:pageopacity="0.0"
     inkscape:pageshadow="2"
     inkscape:zoom="3.1"
     inkscape:cx="255"
     inkscape:cy="123.045"
     inkscape:document-units="px"
     inkscape:current-layer="layer1"
     showgrid="false"
     fit-margin-top="0"
     fit-margin-left="0"
     fit-margin-right="0"
     fit-margin-bottom="0"
     inkscape:window-width="1680"
     inkscape:window-height="990"
     inkscape:window-x="-4"
     inkscape:window-y="-4"
     inkscape:window-maximized="1" />
  <metadata
     id="metadata3634">
    <rdf:RDF>
      <cc:Work
         rdf:about="">
        <dc:format>image/svg+xml</dc:format>
        <dc:type
           rdf:resource="http://purl.org/dc/dcmitype/StillImage" />
        <dc:title></dc:title>
      </cc:Work>
    </rdf:RDF>
  </metadata>
  <g
     inkscape:label="Ebene 1"
     inkscape:groupmode="layer"
     id="layer1"
     transform="translate(-186.48846,-262.35663)">
    <g
       transform="matrix(5.8603807,0,0,-5.8603807,-2645.88,654.61785)"
       id="g62">
      <g
         id="g64"
         clip-path="url(#clipPath66)">
        <g
           id="g70"
           transform="translate(500.8398,65.7467)">
          <path
             inkscape:connector-curvature="0"
             d="m 0,0 c 0.512,0.005 0.773,-0.583 0.773,-0.583 l 8.91,-20.505 c 0.399,-0.916 1.319,-1.161 2.184,-1.37 0.442,-0.107 0.753,-0.61 0.799,-1.166 0.041,-0.475 -0.151,-0.968 -0.596,-1.235 -0.448,-0.268 -0.409,-0.201 -0.94,-0.284 -0.05,-0.007 -7.779,-0.003 -7.779,-0.003 -0.531,0 -0.626,0.241 -0.809,0.571 l -1.619,3.664 c -0.123,0.202 -0.199,0.334 -0.53,0.338 l -8.788,0 c -0.37,-0.014 -0.559,-0.004 -0.687,-0.289 l -0.502,-1.213 c -0.169,-0.437 0.619,-0.31 0.999,-0.573 0.315,-0.218 0.612,-0.501 0.638,-1.098 0.024,-0.573 -0.296,-1.411 -1.369,-1.411 l -6.266,0 c -0.521,0.051 -0.8,0.312 -0.991,0.747 -0.199,0.456 -0.109,1.057 0.203,1.396 0.644,0.699 1.383,0.321 2.59,1.207 0.449,0.328 0.594,0.731 0.868,1.289 l 7.007,15.269 -0.84,1.839 c -0.733,1.117 -2.37,0.331 -2.532,1.905 -0.073,0.702 0.429,1.465 1.227,1.508 L 0,0 z m -3.748,-10.391 c -0.058,0.204 -0.328,0.201 -0.397,-0.003 l -2.799,-5.767 c -0.189,-0.336 0.072,-0.632 0.322,-0.597 l 5.236,-0.009 c 0.224,-0.008 0.363,0.287 0.294,0.499 l -2.656,5.877 z"
             style="fill:#ee2528;fill-opacity:1;fill-rule:nonzero;stroke:none"
             id="path72" />
        </g>
        <g
           id="g74"
           transform="translate(561.1538,65.2446)">
          <path
             inkscape:connector-curvature="0"
             d="M 0,0 C 0.588,-0.277 1.194,0.743 2.148,0.49 3.843,0.04 4.339,-2.154 4.896,-3.551 5.085,-4.378 5.398,-4.956 5.343,-5.842 5.306,-6.489 4.675,-7.07 4.08,-7.125 3.434,-7.184 2.856,-6.747 2.549,-6.412 c -1.769,1.926 -3.756,3.687 -6.63,3.469 -2.767,-0.212 -4.36,-2.62 -4.896,-5.028 -0.616,-2.766 -0.907,-6.312 0.677,-9.983 1.007,-2.334 3.414,-3.58 5.812,-3.275 0.635,0.081 1.507,0.228 1.682,1.082 l 0,5.603 c 0.114,0.635 -0.604,0.587 -1.134,1.039 -0.426,0.364 -0.529,1.125 -0.326,1.695 0.218,0.606 0.732,0.908 1.397,0.936 l 7.793,0.002 c 0.892,0 1.404,-0.787 1.402,-1.303 -0.004,-0.685 -0.344,-1.088 -0.728,-1.324 -0.482,-0.294 -0.693,-0.195 -0.674,-1.005 l 0,-3.983 c -0.019,-0.533 1.18,-0.175 1.107,-1.578 -0.042,-0.811 -1.071,-1.303 -2.27,-1.99 -4.473,-2.567 -9.344,-3.235 -12.827,-2.528 -3.495,0.71 -6.132,2.532 -8.191,5.246 -2.024,2.667 -2.941,6.663 -1.865,10.948 0.819,3.258 2.995,5.467 5.246,7.026 1.817,1.153 3.788,2.078 6.351,2.191 C -3.346,0.923 -0.448,0.212 0,0"
             style="fill:#ee2528;fill-opacity:1;fill-rule:nonzero;stroke:none"
             id="path76" />
        </g>
      </g>
    </g>
    <g
       transform="matrix(5.8603807,0,0,-5.8603807,-2645.88,654.61785)"
       id="g78">
      <g
         id="g80"
         clip-path="url(#clipPath82)">
        <g
           id="g86"
           transform="translate(536.6906,65.7489)">
          <path
             inkscape:connector-curvature="0"
             d="M 0,0 C 0.851,0.014 1.044,-0.475 1.261,-0.746 L 3.852,-4.327 C 4.129,-4.817 4.066,-5.289 3.837,-5.696 3.546,-6.209 2.998,-6.442 2.373,-6.374 1.964,-6.33 1.641,-6.13 1.37,-5.899 c -1.195,0.84 -2.856,2.024 -4.703,2.144 l -7.118,0 c -0.261,-0.008 -0.327,-0.175 -0.327,-0.428 l -0.002,-6.194 c 0.006,-0.185 0.153,-0.237 0.374,-0.221 l 7.092,-0.007 c 0.75,0.007 1.022,0.026 1.239,0.136 0.588,0.299 0.953,0.814 1.574,1.261 0.323,0.234 0.888,0.333 1.341,0.163 0.294,-0.111 0.762,-0.444 0.936,-1.059 0.189,-0.667 -0.19,-1.254 -0.542,-1.803 l -2.395,-3.561 c -0.359,-0.42 -0.776,-0.776 -1.655,-0.562 -0.555,0.134 -0.808,0.617 -1.014,1.306 -0.085,0.286 -0.253,0.339 -0.482,0.339 l -6.254,-0.003 c -0.203,-0.002 -0.287,-0.158 -0.282,-0.346 l -0.003,-6.339 c 0,-0.139 0.079,-0.244 0.303,-0.234 l 6.672,0.008 c 1.049,0 1.713,0.302 1.928,0.387 1.618,0.632 2.767,1.568 3.679,2.177 0.608,0.406 1.417,0.339 1.891,-0.27 0.662,-0.849 0.359,-1.597 -0.13,-2.221 l -2.55,-3.351 c -0.272,-0.305 -0.635,-0.565 -1.034,-0.579 l -19.231,0 c -0.792,0.118 -1.215,0.819 -1.264,1.274 -0.076,0.689 0.243,1.18 0.636,1.464 0.365,0.266 1.169,0.428 1.238,0.92 l 0.011,18.1 c -0.024,0.537 -0.652,0.577 -0.991,0.754 -0.409,0.212 -0.808,0.654 -0.786,1.22 0.021,0.529 0.335,1.438 1.289,1.424 L 0,0 z"
             style="fill:#ee2528;fill-opacity:1;fill-rule:nonzero;stroke:none"
             id="path88" />
        </g>
        <g
           id="g90"
           transform="translate(486.7985,31.3042)">
          <path
             inkscape:connector-curvature="0"
             d="m 0,0 -0.56,0 0,-1.66 0.55,0 c 0.63,0 0.92,0.26 0.92,0.82 C 0.91,-0.27 0.61,0 0,0 m 0.27,-3.059 -0.83,0 0,-2.21 -1.64,0 0,6.668 2.32,0 c 1.46,0 2.499,-0.59 2.499,-2.209 0,-1.48 -0.96,-2.249 -2.349,-2.249"
             style="fill:#231f20;fill-opacity:1;fill-rule:nonzero;stroke:none"
             id="path92" />
        </g>
        <g
           id="g94"
           transform="translate(493.2781,31.2237)">
          <path
             inkscape:connector-curvature="0"
             d="m 0,0 c -0.98,0 -1.78,-0.839 -1.78,-1.87 0,-1.039 0.8,-1.869 1.78,-1.869 0.98,0 1.78,0.83 1.78,1.869 C 1.78,-0.839 0.98,0 0,0 m 0.01,-5.428 c -2.01,0 -3.509,1.519 -3.509,3.549 C -3.499,0.15 -2,1.67 0,1.67 c 2.009,0 3.509,-1.52 3.509,-3.549 0,-2.03 -1.5,-3.549 -3.499,-3.549"
             style="fill:#231f20;fill-opacity:1;fill-rule:nonzero;stroke:none"
             id="path96" />
        </g>
        <g
           id="g98"
           transform="translate(504.4371,26.0354)">
          <path
             inkscape:connector-curvature="0"
             d="M 0,0 -1.68,0 -2.829,3.859 -4.049,0 l -1.669,0 -1.89,6.668 1.719,0 1.1,-4.309 1.34,4.309 1.31,0 1.249,-4.309 1.2,4.309 1.71,0 L 0,0 z"
             style="fill:#231f20;fill-opacity:1;fill-rule:nonzero;stroke:none"
             id="path100" />
        </g>
        <g
           id="g102"
           transform="translate(506.8285,26.0354)">
          <path
             inkscape:connector-curvature="0"
             d="m 0,0 0,6.668 3.599,0 0,-1.469 -1.96,0 0,-1.11 1.86,0 0,-1.47 -1.86,0 0,-1.149 1.96,0 L 3.599,0 0,0 z"
             style="fill:#231f20;fill-opacity:1;fill-rule:nonzero;stroke:none"
             id="path104" />
        </g>
        <g
           id="g106"
           transform="translate(513.348,31.364)">
          <path
             inkscape:connector-curvature="0"
             d="m 0,0 -0.31,0 0,-1.65 0.31,0 c 0.64,0 1.01,0.311 1.01,0.83 C 1.01,-0.3 0.64,0 0,0 m 1.26,-5.329 -1.57,2.56 0,-2.56 -1.64,0 0,6.668 2.33,0 c 0.72,0 1.449,-0.179 1.829,-0.589 0.34,-0.38 0.51,-0.85 0.51,-1.43 0,-0.909 -0.56,-1.72 -1.439,-1.849 l 2.029,-2.8 -2.049,0 z"
             style="fill:#231f20;fill-opacity:1;fill-rule:nonzero;stroke:none"
             id="path108" />
        </g>
        <g
           id="g110"
           transform="translate(521.4879,25.8554)">
          <path
             inkscape:connector-curvature="0"
             d="M 0,0 C -0.83,0 -1.56,0.29 -2.239,0.72 L -1.55,2.1 c 0.37,-0.321 1,-0.64 1.46,-0.64 0.46,0 0.77,0.229 0.77,0.629 0,0.3 -0.26,0.56 -0.92,0.79 -0.73,0.26 -1.19,0.57 -1.44,0.95 -0.159,0.26 -0.28,0.65 -0.28,1.04 0,1.249 0.94,2.119 2.29,2.119 0.63,0 1.3,-0.18 1.869,-0.5 L 1.53,5.109 c -0.33,0.29 -0.72,0.45 -1.09,0.45 -0.39,0 -0.66,-0.23 -0.66,-0.55 0,-0.14 0.04,-0.24 0.12,-0.32 0.13,-0.12 0.39,-0.26 1.03,-0.5 C 1.939,3.819 2.429,3.179 2.429,2.25 2.429,0.95 1.4,0 0,0"
             style="fill:#231f20;fill-opacity:1;fill-rule:nonzero;stroke:none"
             id="path112" />
        </g>
        <g
           id="g114"
           transform="translate(527.8375,31.2237)">
          <path
             inkscape:connector-curvature="0"
             d="m 0,0 c -0.98,0 -1.78,-0.839 -1.78,-1.87 0,-1.039 0.8,-1.869 1.78,-1.869 0.98,0 1.78,0.83 1.78,1.869 C 1.78,-0.839 0.98,0 0,0 m 0.01,-5.428 c -2.01,0 -3.509,1.519 -3.509,3.549 C -3.499,0.15 -2,1.67 0,1.67 c 2.009,0 3.509,-1.52 3.509,-3.549 0,-2.03 -1.5,-3.549 -3.499,-3.549"
             style="fill:#231f20;fill-opacity:1;fill-rule:nonzero;stroke:none"
             id="path116" />
        </g>
        <g
           id="g118"
           transform="translate(532.0582,26.0354)">
          <path
             inkscape:connector-curvature="0"
             d="m 0,0 0,6.668 1.639,0 0,-5.198 1.98,0 L 3.619,0 0,0 z"
             style="fill:#231f20;fill-opacity:1;fill-rule:nonzero;stroke:none"
             id="path120" />
        </g>
        <g
           id="g122"
           transform="translate(541.037,26.805)">
          <path
             inkscape:connector-curvature="0"
             d="m 0,0 c -0.52,-0.63 -1.26,-0.94 -2.19,-0.94 -0.959,0 -1.809,0.37 -2.259,1 -0.33,0.46 -0.45,0.99 -0.45,1.99 l 0,3.848 1.64,0 0,-3.609 c 0,-0.789 0.02,-0.889 0.18,-1.199 0.17,-0.32 0.52,-0.51 0.92,-0.51 0.419,0 0.799,0.21 0.969,0.54 0.15,0.28 0.16,0.45 0.16,1.169 l 0,3.609 1.65,0 0,-3.848 C 0.62,1.06 0.46,0.55 0,0"
             style="fill:#231f20;fill-opacity:1;fill-rule:nonzero;stroke:none"
             id="path124" />
        </g>
        <g
           id="g126"
           transform="translate(545.1574,31.2339)">
          <path
             inkscape:connector-curvature="0"
             d="m 0,0 0,-5.199 -1.64,0 0,5.199 -1.349,0 0,1.47 4.349,0 L 1.36,0 0,0 z"
             style="fill:#231f20;fill-opacity:1;fill-rule:nonzero;stroke:none"
             id="path128" />
        </g>
        <path
           inkscape:connector-curvature="0"
           d="m 547.078,32.703 1.64,0 0,-6.668 -1.64,0 0,6.668 z"
           style="fill:#231f20;fill-opacity:1;fill-rule:nonzero;stroke:none"
           id="path130" />
        <g
           id="g132"
           transform="translate(552.9274,31.2237)">
          <path
             inkscape:connector-curvature="0"
             d="m 0,0 c -0.98,0 -1.78,-0.839 -1.78,-1.87 0,-1.039 0.8,-1.869 1.78,-1.869 0.98,0 1.78,0.83 1.78,1.869 C 1.78,-0.839 0.98,0 0,0 m 0.01,-5.428 c -2.01,0 -3.51,1.519 -3.51,3.549 0,2.029 1.5,3.549 3.5,3.549 2.009,0 3.509,-1.52 3.509,-3.549 0,-2.03 -1.5,-3.549 -3.499,-3.549"
             style="fill:#231f20;fill-opacity:1;fill-rule:nonzero;stroke:none"
             id="path134" />
        </g>
        <g
           id="g136"
           transform="translate(561.8166,26.0354)">
          <path
             inkscape:connector-curvature="0"
             d="m 0,0 -3.029,4.079 0,-4.079 -1.64,0 0,6.668 1.64,0 L 0,2.589 0,6.668 1.65,6.668 1.65,0 0,0 z"
             style="fill:#231f20;fill-opacity:1;fill-rule:nonzero;stroke:none"
             id="path138" />
        </g>
        <g
           id="g140"
           transform="translate(566.4374,25.8554)">
          <path
             inkscape:connector-curvature="0"
             d="m 0,0 c -0.83,0 -1.56,0.29 -2.24,0.72 l 0.69,1.38 c 0.37,-0.321 1,-0.64 1.46,-0.64 0.46,0 0.77,0.229 0.77,0.629 0,0.3 -0.26,0.56 -0.92,0.79 -0.73,0.26 -1.19,0.57 -1.44,0.95 -0.16,0.26 -0.28,0.65 -0.28,1.04 0,1.249 0.94,2.119 2.29,2.119 0.63,0 1.3,-0.18 1.869,-0.5 L 1.53,5.109 c -0.33,0.29 -0.72,0.45 -1.09,0.45 -0.39,0 -0.66,-0.23 -0.66,-0.55 0,-0.14 0.04,-0.24 0.12,-0.32 0.13,-0.12 0.39,-0.26 1.03,-0.5 C 1.94,3.819 2.429,3.179 2.429,2.25 2.429,0.95 1.4,0 0,0"
             style="fill:#231f20;fill-opacity:1;fill-rule:nonzero;stroke:none"
             id="path142" />
        </g>
      </g>
    </g>
  </g>
</svg>
