<?xml version="1.0" encoding="UTF-8" standalone="no"?>
<svg
   xmlns:dc="http://purl.org/dc/elements/1.1/"
   xmlns:cc="http://creativecommons.org/ns#"
   xmlns:rdf="http://www.w3.org/1999/02/22-rdf-syntax-ns#"
   xmlns:svg="http://www.w3.org/2000/svg"
   xmlns="http://www.w3.org/2000/svg"
   version="1.1"
   id="svg7250"
   viewBox="0 0 498.1425 77.561253"
   height="21.889509mm"
   width="140.58688mm">
  <defs
     id="defs7252">
    <clipPath
       id="clipPath3098"
       clipPathUnits="userSpaceOnUse">
      <path
         id="path3100"
         d="m 0,841.89 595.279,0 L 595.279,0 0,0 0,841.89 Z" />
    </clipPath>
  </defs>
  <metadata
     id="metadata7255">
    <rdf:RDF>
      <cc:Work
         rdf:about="">
        <dc:format>image/svg+xml</dc:format>
        <dc:type
           rdf:resource="http://purl.org/dc/dcmitype/StillImage" />
        <dc:title></dc:title>
      </cc:Work>
    </rdf:RDF>
  </metadata>
  <g
     transform="translate(-148.07161,-279.29578)"
     id="layer1">
    <g
       id="g3094"
       transform="matrix(1.25,0,0,-1.25,-39.301267,1264.3604)">
      <g
         clip-path="url(#clipPath3098)"
         id="g3096">
        <g
           transform="translate(149.9023,771.6377)"
           id="g3102">
          <path
             id="path3104"
             style="fill:#db1735;fill-opacity:1;fill-rule:evenodd;stroke:none"
             d="m 0,0 9.004,0 0.004,-19.533 15.338,16.519 c 2.099,2.052 3.622,2.874 5.281,3.014 l 6.546,0.004 c 1.945,0 3.487,-1.645 3.487,-2.754 l -0.029,-26.305 -8.479,0.005 0.016,20.241 -1.116,0 -15.162,-16.53 c -2.365,-2.208 -4.841,-3.724 -7.487,-3.724 l -2.645,0 c -2.501,0.286 -4.627,2.076 -4.762,4.834 L 0,0 Z m 43.109,0.01 7.928,0 0,-10.469 23.721,0 -0.006,10.469 8.016,0 0,-29.065 -8.01,0 0,11.97 -23.729,-0.004 -0.004,-11.966 -7.916,0 0,29.065 z m 42.963,0 39.661,0 0,-6.476 -15.036,0 0,-22.589 -8.352,0 0,22.589 -16.273,0 0,6.476 z m 82.352,0 -34.51,0 c -3.065,-0.135 -4.876,-1.373 -4.876,-5.371 l 0,-17.921 c 0.14,-2.62 2.23,-5.925 5.989,-5.786 l 33.397,0 0,7.866 -31.445,0 0,4.131 31.445,-0.041 0,6.649 -31.172,0 0,4.003 31.172,0 0,6.47 z m 35.172,-6.47 -24.078,0 0,-4.003 24.078,0 0,4.003 z m 0.97,6.607 c 8.604,0 9.272,-17.242 -0.531,-17.236 l -24.517,0.018 0,-11.838 -7.791,0 0,29.056 32.839,0 z m 166.811,-2.897 27.133,-26.581 -11.69,0 -20.037,19.839 0,-19.839 -8.07,0 0,23.415 c 0.141,5.647 6.4,7.718 12.664,3.166 M 326.32,2.305 c 9.275,0 16.801,-7.523 16.801,-16.797 0,-9.279 -7.526,-16.798 -16.801,-16.798 -9.275,0 -16.8,7.519 -16.8,16.798 0,9.274 7.525,16.797 16.8,16.797 m 2.03,8.92 -13.791,2.999 3.92,-4.113 -13.793,-2.506 4.93,-2.526 -11.622,-7.399 5.678,-0.161 -8.136,-12.442 5.08,1.724 -2.907,-12.745 3.925,3.614 2.468,-13.701 2.47,4.565 6.969,-11.18 0.145,5.348 12.488,-8.337 -1.885,4.866 13.358,-2.519 -3.488,3.796 13.366,2.351 -4.794,2.208 11.619,7.4 -5.086,0.637 7.84,11.973 -5.081,-2.056 2.904,14.187 -4.067,-3.779 -2.465,13.862 -2.761,-4.731 -7.116,11.502 -0.871,-5.523 -11.327,7.875 2.03,-5.189 z M 221.742,0.147 l 32.707,0 0,-7.985 -30.612,0 c -0.704,0 -1.115,-0.415 -1.251,-1.238 l 0,-10.611 c 0.136,-0.827 0.547,-1.247 1.383,-1.247 l 30.48,0 0,-7.975 -31.594,0 c -5.842,-0.146 -8.065,3.024 -8.205,7.975 l 0,14.474 c 0,3.854 2.363,6.607 7.092,6.607 m 36.012,-0.416 9.184,0 0,-11.838 c 0,1.104 0.685,1.793 1.664,2.477 l 14.196,9.361 14.61,0 -21.152,-14.46 21.152,-14.463 -14.61,0 -14.058,9.367 c -0.834,0.55 -1.802,1.238 -1.802,2.486 l 0,-11.853 -9.184,0 0,28.923 z" />
        </g>
      </g>
    </g>
  </g>
</svg>
