<?xml version="1.0" encoding="UTF-8" standalone="no"?>
<!-- Created with Inkscape (http://www.inkscape.org/) -->

<svg
   xmlns:dc="http://purl.org/dc/elements/1.1/"
   xmlns:cc="http://creativecommons.org/ns#"
   xmlns:rdf="http://www.w3.org/1999/02/22-rdf-syntax-ns#"
   xmlns:svg="http://www.w3.org/2000/svg"
   xmlns="http://www.w3.org/2000/svg"
   xmlns:sodipodi="http://sodipodi.sourceforge.net/DTD/sodipodi-0.dtd"
   xmlns:inkscape="http://www.inkscape.org/namespaces/inkscape"
   width="1024"
   height="295"
   id="svg3347"
   version="1.1"
   inkscape:version="0.48.3.1 r9886"
   sodipodi:docname="metabo.svg">
  <defs
     id="defs3349">
    <clipPath
       clipPathUnits="userSpaceOnUse"
       id="clipPath3249">
      <path
         inkscape:connector-curvature="0"
         d="m 0,0 595.276,0 0,841.89 L 0,841.89 0,0 z"
         id="path3251" />
    </clipPath>
    <clipPath
       clipPathUnits="userSpaceOnUse"
       id="clipPath3231">
      <path
         inkscape:connector-curvature="0"
         d="m 0,0 595.276,0 0,841.89 L 0,841.89 0,0 z"
         id="path3233" />
    </clipPath>
    <clipPath
       clipPathUnits="userSpaceOnUse"
       id="clipPath3207">
      <path
         inkscape:connector-curvature="0"
         d="m 0,0 595.276,0 0,841.89 L 0,841.89 0,0 z"
         id="path3209" />
    </clipPath>
    <clipPath
       clipPathUnits="userSpaceOnUse"
       id="clipPath3187">
      <path
         inkscape:connector-curvature="0"
         d="m 0,0 595.276,0 0,841.89 L 0,841.89 0,0 z"
         id="path3189" />
    </clipPath>
    <clipPath
       clipPathUnits="userSpaceOnUse"
       id="clipPath3159">
      <path
         inkscape:connector-curvature="0"
         d="m 0,0 595.276,0 0,841.89 L 0,841.89 0,0 z"
         id="path3161" />
    </clipPath>
    <clipPath
       clipPathUnits="userSpaceOnUse"
       id="clipPath3139">
      <path
         inkscape:connector-curvature="0"
         d="m 0,0 595.276,0 0,841.89 L 0,841.89 0,0 z"
         id="path3141" />
    </clipPath>
  </defs>
  <sodipodi:namedview
     id="base"
     pagecolor="#ffffff"
     bordercolor="#666666"
     borderopacity="1.0"
     inkscape:pageopacity="0.0"
     inkscape:pageshadow="2"
     inkscape:zoom="0.5"
     inkscape:cx="512"
     inkscape:cy="382"
     inkscape:current-layer="layer1"
     inkscape:document-units="px"
     showgrid="false"
     inkscape:window-width="921"
     inkscape:window-height="635"
     inkscape:window-x="75"
     inkscape:window-y="75"
     inkscape:window-maximized="0" />
  <metadata
     id="metadata3352">
    <rdf:RDF>
      <cc:Work
         rdf:about="">
        <dc:format>image/svg+xml</dc:format>
        <dc:type
           rdf:resource="http://purl.org/dc/dcmitype/StillImage" />
        <dc:title></dc:title>
      </cc:Work>
    </rdf:RDF>
  </metadata>
  <g
     id="layer1"
     inkscape:label="Layer 1"
     inkscape:groupmode="layer"
     transform="translate(0,-473)">
    <g
       id="g3488"
       transform="matrix(1.0799689,0,0,1,-34.234669,58)">
      <g
         id="g3135"
         transform="matrix(5.4480763,0,0,-4.663409,-2089.3464,4193.1971)">
        <g
           clip-path="url(#clipPath3139)"
           id="g3137">
          <g
             transform="translate(533.3599,784.9489)"
             id="g3143">
            <path
               id="path3145"
               style="fill:#0b453a;fill-opacity:1;fill-rule:nonzero;stroke:none"
               d="m 0,0 c 0,6.978 5.809,12.635 13.031,12.635 7.222,0 13.032,-5.657 13.032,-12.635 0,-6.978 -5.81,-12.635 -13.032,-12.635 C 5.809,-12.635 0,-6.978 0,0 m 13.059,-5.021 c 2.693,0 4.877,2.361 4.877,5.273 0,2.912 -2.184,5.273 -4.877,5.273 -2.695,0 -4.878,-2.361 -4.878,-5.273 0,-2.912 2.183,-5.273 4.878,-5.273"
               inkscape:connector-curvature="0" />
          </g>
          <g
             transform="translate(402.1312,796.5967)"
             id="g3147">
            <path
               id="path3149"
               style="fill:#0b453a;fill-opacity:1;fill-rule:nonzero;stroke:none"
               d="m 0,0 -10.241,0 0,-6.843 2.217,0 0,-9.686 -2.217,0 0,-6.988 10.443,0.001 0,14.706 c -0.01,1.302 0.413,2.613 2.336,2.613 1.949,0 2.37,-1.311 2.363,-2.629 l 0,-14.691 8.041,0.001 -10e-4,14.69 c 0.004,1.318 0.424,2.629 2.321,2.629 1.923,0 2.344,-1.311 2.354,-2.629 l -0.001,-14.69 10.469,-0.001 0,6.988 -2.217,0 0,9.686 c 0,5.301 -2.769,7.831 -6.66,7.831 -2.719,0 -5.01,-1.053 -6.806,-3.059 C 11.298,-0.245 10.026,0.988 6.499,0.988 3.591,0.957 1.668,-0.043 0,-1.986 L 0,0 z"
               inkscape:connector-curvature="0" />
          </g>
        </g>
      </g>
      <g
         transform="matrix(5.4480763,0,0,-4.663409,469.77521,443.12999)"
         id="g3151">
        <path
           id="path3153"
           style="fill:#0b453a;fill-opacity:1;fill-rule:nonzero;stroke:none"
           d="m 0,0 -7.971,0 0,-7.569 -2.191,0 0,-6.824 2.191,0 0,-9.686 -2.251,0 0,-6.988 12.515,0 0,6.988 -2.223,0 0,9.686 2.106,0 0,6.824 L 0,-7.569 0,0 z"
           inkscape:connector-curvature="0" />
      </g>
      <g
         id="g3155"
         transform="matrix(5.4480763,0,0,-4.663409,-2089.3464,4193.1971)">
        <g
           clip-path="url(#clipPath3159)"
           id="g3157">
          <g
             transform="translate(491.1165,794.9597)"
             id="g3163">
            <path
               id="path3165"
               style="fill:#0b453a;fill-opacity:1;fill-rule:nonzero;stroke:none"
               d="m 0,0 0,1.643 10.205,0 0,-6.848 -1.94,0 0,-9.687 1.911,0 0,-6.987 -10.366,-0.004 0.007,1.644 c -1.816,-1.556 -4.023,-2.406 -6.465,-2.406 -6.013,0 -10.886,5.582 -10.886,12.468 0,6.886 4.873,12.468 10.886,12.468 C -4.154,2.291 -1.835,1.616 0,0 m -4.643,-14.969 c 2.678,0 4.849,2.347 4.849,5.242 0,2.894 -2.171,5.241 -4.849,5.241 -2.678,0 -4.849,-2.347 -4.849,-5.241 0,-2.895 2.171,-5.242 4.849,-5.242"
               inkscape:connector-curvature="0" />
          </g>
          <g
             transform="translate(520.9984,797.2149)"
             id="g3167">
            <path
               id="path3169"
               style="fill:#0b453a;fill-opacity:1;fill-rule:nonzero;stroke:none"
               d="m 0,0 c 6.004,0 10.871,-5.574 10.871,-12.45 0,-6.876 -4.867,-12.451 -10.871,-12.451 -2.438,0 -4.663,0.849 -6.477,2.401 l 0,-1.634 -10.352,0 0,6.987 1.938,0 0,18.796 -1.938,0 0,6.777 10.19,0 0,-10.713 C -4.806,-0.674 -2.49,0 0,0 m -1.988,-17.209 c 2.674,0 4.842,2.343 4.842,5.234 0,2.89 -2.168,5.234 -4.842,5.234 -2.674,0 -4.842,-2.344 -4.842,-5.234 0,-2.891 2.168,-5.234 4.842,-5.234"
               inkscape:connector-curvature="0" />
          </g>
          <g
             transform="translate(448.6495,779.8534)"
             id="g3171">
            <path
               id="path3173"
               style="fill:#0b453a;fill-opacity:1;fill-rule:nonzero;stroke:none"
               d="M 0,0 8.42,0 C 7.497,-3.671 2.735,-7.817 -3.961,-7.844 c -6.74,-0.027 -12.948,4.652 -12.948,12.716 0,6.758 4.759,12.604 12.948,12.716 C 3.945,17.696 8.956,11.591 8.987,4.872 8.989,4.167 8.918,3.607 8.801,2.934 l -16.892,0 c 0.06,-2.99 1.67,-4.172 4.025,-4.335 C -2.879,-1.484 -1.034,-1.176 0,0 m 0.13,7.679 c 0,2.212 -1.878,4.038 -4.162,4.038 -1.995,0 -4.084,-1.836 -4.084,-4.038 l 8.246,0 z"
               inkscape:connector-curvature="0" />
          </g>
          <g
             transform="translate(555.7421,805.0055)"
             id="g3175">
            <path
               id="path3177"
               style="fill:#0b453a;fill-opacity:1;fill-rule:nonzero;stroke:none"
               d="M 0,0 C 0,1.714 1.391,3.105 3.122,3.105 4.844,3.105 6.226,1.714 6.226,0 6.226,-1.731 4.844,-3.122 3.122,-3.122 1.391,-3.122 0,-1.731 0,0 M 5.68,0 C 5.68,1.408 4.538,2.559 3.122,2.559 1.697,2.559 0.546,1.408 0.546,0 c 0,-1.424 1.151,-2.575 2.576,-2.575 1.416,0 2.558,1.151 2.558,2.575 m -3.221,-0.207 0,-1.582 -0.571,0 0,3.66 1.184,0 c 0.671,0 1.366,-0.182 1.366,-1.01 0,-0.422 -0.256,-0.753 -0.746,-0.853 l 0,-0.016 c 0.506,-0.1 0.564,-0.323 0.622,-0.721 0.05,-0.348 0.091,-0.729 0.216,-1.06 l -0.729,0 c -0.042,0.207 -0.1,0.439 -0.124,0.655 -0.042,0.314 -0.042,0.604 -0.208,0.778 -0.141,0.149 -0.33,0.132 -0.53,0.149 l -0.48,0 z m 0.604,0.571 c 0.539,0.017 0.663,0.24 0.663,0.522 0,0.273 -0.124,0.414 -0.58,0.414 l -0.687,0 0,-0.936 0.604,0 z"
               inkscape:connector-curvature="0" />
          </g>
        </g>
      </g>
      <g
         transform="matrix(5.4480763,0,0,-4.663409,61.90062,686.03062)"
         id="g3179">
        <path
           id="path3181"
           style="fill:#000000;fill-opacity:1;fill-rule:nonzero;stroke:none"
           d="m 0,0 -2.96,9.712 3.714,0 1.567,-6.887 0.039,0 1.703,6.887 4.062,0 1.684,-6.849 0.038,0 1.703,6.849 3.25,0 L 11.743,0 7.681,0 5.92,6.771 5.881,6.771 3.985,0 0,0 z"
           inkscape:connector-curvature="0" />
      </g>
      <g
         id="g3183"
         transform="matrix(5.4480763,0,0,-4.663409,-2089.3464,4193.1971)">
        <g
           clip-path="url(#clipPath3187)"
           id="g3185">
          <g
             transform="translate(421.9099,756.9169)"
             id="g3191">
            <path
               id="path3193"
               style="fill:#000000;fill-opacity:1;fill-rule:nonzero;stroke:none"
               d="m 0,0 c 0,-3.579 -2.612,-5.146 -5.649,-5.146 -3.038,0 -5.65,1.567 -5.65,5.146 0,3.579 2.612,5.146 5.65,5.146 C -2.612,5.146 0,3.579 0,0 m -5.649,-3.018 c 1.547,0 1.876,1.644 1.876,3.018 0,1.373 -0.329,3.018 -1.876,3.018 -1.548,0 -1.877,-1.645 -1.877,-3.018 0,-1.374 0.329,-3.018 1.877,-3.018"
               inkscape:connector-curvature="0" />
          </g>
          <g
             transform="translate(427.5394,759.9543)"
             id="g3195">
            <path
               id="path3197"
               style="fill:#000000;fill-opacity:1;fill-rule:nonzero;stroke:none"
               d="m 0,0 0.039,0 c 0.425,1.605 1.625,2.147 3.25,2.108 l 0,-3.114 C 3.018,-0.987 2.767,-0.987 2.515,-0.987 0.6,-1.006 -0.058,-2.148 0,-4.005 l 0,-3.889 -3.676,0 0,7.217 c 0,0.87 -0.019,1.45 -0.116,2.495 l 3.734,0 L 0,0 z"
               inkscape:connector-curvature="0" />
          </g>
        </g>
      </g>
      <path
         id="path3199"
         style="fill:#000000;fill-opacity:1;fill-rule:nonzero;stroke:none"
         d="m 266.27104,620.89075 20.02713,0 0,65.13849 -20.02713,0 0,-65.13849 z m 20.02713,39.87681 18.23471,-20.02935 21.81954,0 -17.91872,19.03604 20.55014,26.25499 -23.71547,0 -18.9702,-25.26168 z"
         inkscape:connector-curvature="0" />
      <path
         id="path3201"
         style="fill:#000000;fill-opacity:1;fill-rule:nonzero;stroke:none"
         d="m 336.889,672.49603 18.9702,0 0,13.53321 -18.9702,0 0,-13.53321 z"
         inkscape:connector-curvature="0" />
      <g
         id="g3203"
         transform="matrix(5.4480763,0,0,-4.663409,-2089.3464,4193.1971)">
        <g
           clip-path="url(#clipPath3207)"
           id="g3205">
          <g
             transform="translate(463.4266,753.4923)"
             id="g3211">
            <path
               id="path3213"
               style="fill:#000000;fill-opacity:1;fill-rule:nonzero;stroke:none"
               d="m 0,0 -0.077,0 c -0.503,-1.18 -1.857,-1.722 -3.231,-1.722 -2.767,0 -4.063,2.689 -4.063,5.108 0,2.573 1.296,5.184 4.179,5.184 1.219,0 2.438,-0.425 3.154,-1.431 l 0.038,0 0,5.397 3.676,0 0,-13.968 -3.579,0 L 0,0 z m -3.599,3.425 c 0,-1.277 0.291,-3.019 1.8,-3.019 1.509,0 1.799,1.742 1.799,3.019 0,1.296 -0.194,3.017 -1.799,3.017 -1.606,0 -1.8,-1.721 -1.8,-3.017"
               inkscape:connector-curvature="0" />
          </g>
          <g
             transform="translate(480.1616,756.9169)"
             id="g3215">
            <path
               id="path3217"
               style="fill:#000000;fill-opacity:1;fill-rule:nonzero;stroke:none"
               d="m 0,0 c 0,-3.579 -2.612,-5.146 -5.649,-5.146 -3.038,0 -5.65,1.567 -5.65,5.146 0,3.579 2.612,5.146 5.65,5.146 C -2.612,5.146 0,3.579 0,0 m -5.649,-3.018 c 1.548,0 1.876,1.644 1.876,3.018 0,1.373 -0.328,3.018 -1.876,3.018 -1.548,0 -1.877,-1.645 -1.877,-3.018 0,-1.374 0.329,-3.018 1.877,-3.018"
               inkscape:connector-curvature="0" />
          </g>
          <g
             transform="translate(485.7911,760.7085)"
             id="g3219">
            <path
               id="path3221"
               style="fill:#000000;fill-opacity:1;fill-rule:nonzero;stroke:none"
               d="m 0,0 c 0.832,0.968 1.799,1.354 3.037,1.354 2.09,0 3.637,-1.354 3.637,-3.501 l 0,-6.501 -3.676,0 0,5.708 C 2.96,-1.993 2.728,-0.967 1.586,-0.967 -0.232,-0.967 0,-2.96 0,-3.076 l 0,-5.572 -3.676,0 0,7.216 c 0,0.871 -0.019,1.451 -0.116,2.496 l 3.734,0 L 0,0 z"
               inkscape:connector-curvature="0" />
          </g>
        </g>
      </g>
      <g
         transform="matrix(5.4480763,0,0,-4.663409,606.71317,620.89216)"
         id="g3223">
        <path
           id="path3225"
           style="fill:#000000;fill-opacity:1;fill-rule:nonzero;stroke:none"
           d="m 0,0 3.637,0 -2.283,-5.166 -2.631,0 L 0,0 z"
           inkscape:connector-curvature="0" />
      </g>
      <g
         id="g3227"
         transform="matrix(5.4480763,0,0,-4.663409,-2089.3464,4193.1971)">
        <g
           clip-path="url(#clipPath3231)"
           id="g3229">
          <g
             transform="translate(500.342,761.7726)"
             id="g3235">
            <path
               id="path3237"
               style="fill:#000000;fill-opacity:1;fill-rule:nonzero;stroke:none"
               d="m 0,0 0,1.47 3.676,1.394 0,-2.864 2.128,0 0,-2.322 -2.128,0 0,-3.849 c 0,-0.252 -0.155,-1.509 0.696,-1.509 0.484,0 0.987,0 1.413,0.058 l 0,-2.186 c -0.832,-0.156 -1.432,-0.194 -1.974,-0.194 -2.495,0 -4.005,0.348 -3.811,3.328 l 0,4.352 -1.896,0 0,2.322 L 0,0 z"
               inkscape:connector-curvature="0" />
          </g>
          <g
             transform="translate(517.7538,760.3992)"
             id="g3239">
            <path
               id="path3241"
               style="fill:#000000;fill-opacity:1;fill-rule:nonzero;stroke:none"
               d="m 0,0 0.038,0 c 0.736,1.141 1.722,1.664 3.154,1.664 2.882,0 4.14,-2.457 4.14,-5.011 0,-2.844 -1.431,-5.282 -4.546,-5.282 -1.083,0 -2.07,0.6 -2.748,1.451 l -0.038,0 0,-4.875 -3.676,0 0,13.426 L 0,1.373 0,0 z M 0,-3.482 C 0,-4.721 0.232,-6.5 1.78,-6.5 c 1.548,0 1.78,1.779 1.78,3.018 0,1.238 -0.232,3.017 -1.78,3.017 C 0.232,-0.465 0,-2.244 0,-3.482"
               inkscape:connector-curvature="0" />
          </g>
        </g>
      </g>
      <path
         id="path3243"
         style="fill:#000000;fill-opacity:1;fill-rule:nonzero;stroke:none"
         d="m 782.74322,620.89075 20.02168,0 0,65.13849 -20.02168,0 0,-65.13849 z"
         inkscape:connector-curvature="0" />
      <g
         id="g3245"
         transform="matrix(5.4480763,0,0,-4.663409,-2089.3464,4193.1971)">
        <g
           clip-path="url(#clipPath3249)"
           id="g3247">
          <g
             transform="translate(539.402,752.0607)"
             id="g3253">
            <path
               id="path3255"
               style="fill:#000000;fill-opacity:1;fill-rule:nonzero;stroke:none"
               d="m 0,0 c -0.077,0.309 -0.077,0.619 -0.077,1.316 l -0.039,0 C -0.561,0.619 -1.393,-0.29 -3.211,-0.29 c -2.303,0 -3.502,1.238 -3.463,3.231 0.038,2.36 2.205,3.327 5.378,3.327 l 1.161,0 c 0,0.852 0.193,2.09 -1.277,2.031 C -2.302,8.261 -2.593,7.39 -2.573,6.81 l -3.463,0 c -0.019,1.374 0.697,2.167 1.683,2.612 1.006,0.464 2.264,0.58 3.347,0.58 1.974,0 4.353,-0.832 4.314,-3.018 l 0,-4.991 C 3.308,1.586 3.386,1.161 3.521,0 L 0,0 z m -1.857,1.838 c 1.586,0 1.722,1.49 1.722,2.786 -0.774,0 -1.509,0.039 -2.012,-0.213 -0.542,-0.271 -0.968,-0.619 -0.968,-1.296 0,-0.697 0.561,-1.277 1.258,-1.277"
               inkscape:connector-curvature="0" />
          </g>
        </g>
      </g>
      <g
         transform="matrix(5.4480763,0,0,-4.663409,936.10221,640.74008)"
         id="g3257">
        <path
           id="path3259"
           style="fill:#000000;fill-opacity:1;fill-rule:nonzero;stroke:none"
           d="m 0,0 -5.282,-13.426 -3.385,0 1.373,3.424 -4.063,10.002 3.928,0 1.915,-6.752 0.039,0 L -3.386,0 0,0 z"
           inkscape:connector-curvature="0" />
      </g>
      <path
         id="path3261"
         style="fill:#000000;fill-opacity:1;fill-rule:nonzero;stroke:none"
         d="m 939.47893,672.49603 18.9702,0 0,13.53321 -18.9702,0 0,-13.53321 z"
         inkscape:connector-curvature="0" />
    </g>
  </g>
</svg>
